# xmcd
# 
# Track frame offsets:
#     150
#     18639
#     31872
#     45673
#     61410
#     73956
#     86835
#     98706
#     110853
#     124035
#     141864
#     160083
# 
# Disc length: 2310
# 
# Revision: 2
# Processed by: cddbd v1.5.2PL0 Copyright (c) Steve Scherf et al.
# Submitted via: fre:ac v1.1beta1pre4
# 
DISCID=a909040c
DTITLE=Suzy Bogguss - Have Yourself A Merry Little Christmas
DYEAR=2003
DGENRE=Holiday
TTITLE0=Have Yourself A Merry Little Christmas
TTITLE1=Mr. Santa
TTITLE2=Sleigh Ride
TTITLE3=Do You Hear What I Hear
TTITLE4=Winter Wonderland
TTITLE5=I Heard The Bells On Christmas Day
TTITLE6=Rudolph The Red-Nosed Reindeer
TTITLE7=Two-Step 'Round The Christmas Tree
TTITLE8=Baby It's Cold Outside
TTITLE9=Through Your Eyes
TTITLE10=O Holy Night
TTITLE11=Jingle Bells
EXTD=
EXTT0=
EXTT1=
EXTT2=
EXTT3=
EXTT4=
EXTT5=
EXTT6=
EXTT7=
EXTT8=
EXTT9=
EXTT10=
EXTT11=
PLAYORDER=
